# xmcd CD database file
#
# Track frame offsets:
#	150
#	23071
#	42634
#	58327
#	79645
#	102868
#	133063
#	147909
#	167744
#	183922
#	199315
#	215705
#	238124
#	252464
#	275061
#	293607
#	310432
#
# Disc length: 4325 seconds
#
# Revision: 0
# Processed by: cddbd v1.5.2PL0 Copyright (c) Steve Scherf et al.
# Submitted via: CDex 1.51
#
DISCID=0d10e311
DTITLE=Leadfoot Rivet - Welcome To My Mongrel Music World !
DYEAR=2012
DGENRE=Blues
TTITLE0=Split Personality
TTITLE1=I Feel Like I`m Sinking
TTITLE2=Fried Okras
TTITLE3=Friend Lover Wife
TTITLE4=Famous
TTITLE5=She Put The Jinx On Me
TTITLE6=Them Changes
TTITLE7=Mongrel Music
TTITLE8=Apples Dipped In Candy
TTITLE9=Dead End Avenue
TTITLE10=A Godsend
TTITLE11=Where Is The Director ?
TTITLE12=The Worst Guitar Player In Town
TTITLE13=I`ll Find The Exit
TTITLE14=Too fast For Rapid City
TTITLE15=Daddy The Ghost
TTITLE16=How I Love Them Good Ole Blues !
EXTD=YEAR: 2012
EXTT0=
EXTT1=
EXTT2=
EXTT3=
EXTT4=
EXTT5=
EXTT6=
EXTT7=
EXTT8=
EXTT9=
EXTT10=
EXTT11=
EXTT12=
EXTT13=
EXTT14=
EXTT15=
EXTT16=
PLAYORDER=
